G04 #@! TF.FileFunction,Soldermask,Top*
%FSLAX46Y46*%
G04 Gerber Fmt 4.6, Leading zero omitted, Abs format (unit mm)*
G04 Created by KiCad (PCBNEW 4.0.2+dfsg1-stable) date 2018年07月27日 19時18分06秒*
%MOMM*%
G01*
G04 APERTURE LIST*
%ADD10C,0.100000*%
%ADD11C,0.300000*%
%ADD12C,1.924000*%
%ADD13C,2.400000*%
%ADD14R,2.100000X2.100000*%
%ADD15O,2.100000X2.100000*%
%ADD16O,1.900000X1.800000*%
%ADD17R,0.800000X1.400000*%
%ADD18R,1.500000X0.800000*%
%ADD19R,1.800000X0.800000*%
%ADD20R,0.800000X1.800000*%
%ADD21R,1.000000X1.800000*%
%ADD22R,2.432000X2.000000*%
%ADD23O,2.432000X2.432000*%
%ADD24R,1.300000X1.400000*%
%ADD25R,1.300000X1.700000*%
%ADD26O,2.000000X1.800000*%
%ADD27C,1.900000*%
%ADD28R,1.901140X1.101040*%
%ADD29R,1.901140X1.400760*%
%ADD30R,1.200100X2.398980*%
%ADD31R,1.543000X0.908000*%
%ADD32O,1.900000X2.400000*%
%ADD33R,2.400000X2.400000*%
%ADD34R,1.200000X1.150000*%
%ADD35R,1.200000X1.500000*%
%ADD36R,2.400000X1.500000*%
%ADD37C,3.900120*%
%ADD38O,2.100000X1.900000*%
%ADD39R,1.900000X1.700000*%
%ADD40C,2.100000*%
%ADD41R,1.800000X1.200000*%
%ADD42R,1.250000X1.924000*%
%ADD43R,1.250000X2.400000*%
G04 APERTURE END LIST*
D10*
D11*
X120837207Y-83336229D02*
X120551493Y-83336229D01*
X120417564Y-83264800D01*
X120292564Y-83121943D01*
X120256850Y-82836229D01*
X120319350Y-82336229D01*
X120426493Y-82050514D01*
X120587207Y-81907657D01*
X120738993Y-81836229D01*
X121024707Y-81836229D01*
X121158636Y-81907657D01*
X121283636Y-82050514D01*
X121319350Y-82336229D01*
X121256850Y-82836229D01*
X121149707Y-83121943D01*
X120988993Y-83264800D01*
X120837207Y-83336229D01*
X119738992Y-81836229D02*
X119551492Y-83336229D01*
X118980064Y-83336229D01*
X118846135Y-83264800D01*
X118783636Y-83193371D01*
X118730064Y-83050514D01*
X118756849Y-82836229D01*
X118846136Y-82693371D01*
X118926492Y-82621943D01*
X119078279Y-82550514D01*
X119649707Y-82550514D01*
X118140778Y-82621943D02*
X117640778Y-82621943D01*
X117524706Y-81836229D02*
X118238992Y-81836229D01*
X118051492Y-83336229D01*
X117337206Y-83336229D01*
X116881849Y-81836229D02*
X116694349Y-83336229D01*
X116024706Y-81836229D01*
X115837206Y-83336229D01*
X114712206Y-82621943D02*
X115212206Y-82621943D01*
X115310420Y-81836229D02*
X115122920Y-83336229D01*
X114408634Y-83336229D01*
X113551492Y-83336229D02*
X113265778Y-83336229D01*
X113131849Y-83264800D01*
X113006849Y-83121943D01*
X112971135Y-82836229D01*
X113033635Y-82336229D01*
X113140778Y-82050514D01*
X113301492Y-81907657D01*
X113453278Y-81836229D01*
X113738992Y-81836229D01*
X113872921Y-81907657D01*
X113997921Y-82050514D01*
X114033635Y-82336229D01*
X113971135Y-82836229D01*
X113863992Y-83121943D01*
X113703278Y-83264800D01*
X113551492Y-83336229D01*
X111596134Y-81836229D02*
X112006849Y-82550514D01*
X112453277Y-81836229D02*
X112265777Y-83336229D01*
X111694349Y-83336229D01*
X111560420Y-83264800D01*
X111497921Y-83193371D01*
X111444349Y-83050514D01*
X111471134Y-82836229D01*
X111560421Y-82693371D01*
X111640777Y-82621943D01*
X111792564Y-82550514D01*
X112363992Y-82550514D01*
X110078277Y-81979086D02*
X110158635Y-81907657D01*
X110381849Y-81836229D01*
X110524706Y-81836229D01*
X110730063Y-81907657D01*
X110855064Y-82050514D01*
X110908635Y-82193371D01*
X110944349Y-82479086D01*
X110917564Y-82693371D01*
X110810420Y-82979086D01*
X110721135Y-83121943D01*
X110560420Y-83264800D01*
X110337206Y-83336229D01*
X110194349Y-83336229D01*
X109988992Y-83264800D01*
X109926492Y-83193371D01*
X109355063Y-82621943D02*
X108855063Y-82621943D01*
X108738991Y-81836229D02*
X109453277Y-81836229D01*
X109265777Y-83336229D01*
X108551491Y-83336229D01*
D12*
X50535800Y-88534600D03*
X50535800Y-85994600D03*
X50535800Y-83454600D03*
X50535800Y-80914600D03*
X50535800Y-78374600D03*
X50535800Y-75834600D03*
X45455800Y-75834600D03*
X42915800Y-75834600D03*
X40375800Y-75834600D03*
X37835800Y-75834600D03*
X37835800Y-88534600D03*
X40375800Y-88534600D03*
X42915800Y-88534600D03*
X45455800Y-88534600D03*
D13*
X44185800Y-85359600D03*
X44185800Y-79009600D03*
D14*
X71160600Y-77434800D03*
D15*
X73700600Y-77434800D03*
X76240600Y-77434800D03*
X78780600Y-77434800D03*
D12*
X63540600Y-87554800D03*
X66080600Y-87554800D03*
X61000600Y-87554800D03*
X58460600Y-87554800D03*
X55920600Y-87554800D03*
X53380600Y-87554800D03*
D16*
X68620600Y-87554800D03*
D17*
X86485600Y-79394800D03*
X87885600Y-79394800D03*
X85085600Y-79394800D03*
X83685600Y-79394800D03*
D18*
X80685600Y-85094800D03*
D19*
X80535600Y-84394800D03*
X80535600Y-83694800D03*
X80535600Y-82294800D03*
X80535600Y-82994800D03*
X80535600Y-78794800D03*
X80535600Y-78094800D03*
D18*
X80685600Y-77394800D03*
D19*
X80535600Y-79494800D03*
X80535600Y-80194800D03*
X80535600Y-81594800D03*
X80535600Y-80894800D03*
D20*
X88935600Y-85244800D03*
X88235600Y-85244800D03*
X86835600Y-85244800D03*
X87535600Y-85244800D03*
X86135600Y-85244800D03*
X81935600Y-85244800D03*
X83335600Y-85244800D03*
X82635600Y-85244800D03*
X84035600Y-85244800D03*
X84735600Y-85244800D03*
X85435600Y-85244800D03*
X85435600Y-77244800D03*
X84735600Y-77244800D03*
X84035600Y-77244800D03*
X82635600Y-77244800D03*
X83335600Y-77244800D03*
X81935600Y-77244800D03*
X86135600Y-77244800D03*
X87535600Y-77244800D03*
X86835600Y-77244800D03*
X88235600Y-77244800D03*
X88935600Y-77244800D03*
X89635600Y-77244800D03*
D21*
X90435600Y-85244800D03*
X90435600Y-77244800D03*
D22*
X53380600Y-85054800D03*
D23*
X55920600Y-85054800D03*
D24*
X62732000Y-85275200D03*
D25*
X66232000Y-81225200D03*
X66232000Y-85125200D03*
D26*
X68620600Y-82514800D03*
X68620600Y-85054800D03*
D27*
X68620600Y-79974800D03*
D10*
G36*
X54219410Y-82851960D02*
X53070110Y-82351580D01*
X53070110Y-80950820D01*
X54219410Y-80450440D01*
X54219410Y-82851960D01*
X54219410Y-82851960D01*
G37*
D28*
X52519540Y-83152340D03*
X52519540Y-80150060D03*
X56222860Y-83152340D03*
D29*
X56222860Y-81651200D03*
D28*
X56222860Y-80150060D03*
D29*
X52519540Y-81651200D03*
D10*
G36*
X54522990Y-80450440D02*
X55672290Y-80950820D01*
X55672290Y-82351580D01*
X54522990Y-82851960D01*
X54522990Y-80450440D01*
X54522990Y-80450440D01*
G37*
D30*
X54371200Y-81651200D03*
D31*
X71795600Y-85054800D03*
X71795600Y-83784800D03*
X71795600Y-82514800D03*
X71795600Y-81244800D03*
X78145600Y-81244800D03*
X78145600Y-82514800D03*
X78145600Y-83784800D03*
X78145600Y-85054800D03*
D32*
X48053100Y-86197300D03*
D33*
X48053100Y-78697300D03*
X48053100Y-75197300D03*
X48053100Y-89197300D03*
X25053100Y-89197300D03*
X25053100Y-75197300D03*
D34*
X60085600Y-79744800D03*
X61585600Y-79744800D03*
X78959100Y-79276300D03*
X77459100Y-79276300D03*
D35*
X57740800Y-85740600D03*
D36*
X59640800Y-85740600D03*
D34*
X74385000Y-79339800D03*
X75885000Y-79339800D03*
D37*
X26075600Y-81879800D03*
D38*
X88940600Y-87594800D03*
X83860600Y-87594800D03*
X86400600Y-87594800D03*
X81320600Y-87594800D03*
X76240600Y-87594800D03*
X78780600Y-87594800D03*
X73700600Y-87594800D03*
D39*
X71160600Y-87594800D03*
D40*
X66080600Y-77434800D03*
X68620600Y-77434800D03*
D27*
X63540600Y-77434800D03*
X58460600Y-77434800D03*
D16*
X61000600Y-77434800D03*
D40*
X55920600Y-77434800D03*
D14*
X53380600Y-77434800D03*
D41*
X60035600Y-81044800D03*
D42*
X60335600Y-80744800D03*
D43*
X58335600Y-80944800D03*
D42*
X58335600Y-83944800D03*
M02*
