G04 #@! TF.FileFunction,Copper,L2,Bot,Signal*
%FSLAX46Y46*%
G04 Gerber Fmt 4.6, Leading zero omitted, Abs format (unit mm)*
G04 Created by KiCad (PCBNEW 4.0.2+dfsg1-stable) date 2018年07月27日 19時18分06秒*
%MOMM*%
G01*
G04 APERTURE LIST*
%ADD10C,0.100000*%
%ADD11C,1.524000*%
%ADD12R,1.700000X1.700000*%
%ADD13O,1.700000X1.700000*%
%ADD14O,1.500000X1.400000*%
%ADD15R,2.032000X1.600000*%
%ADD16O,2.032000X2.032000*%
%ADD17O,1.600000X1.400000*%
%ADD18C,1.500000*%
%ADD19C,4.800000*%
%ADD20O,1.500000X2.000000*%
%ADD21R,2.000000X2.000000*%
%ADD22C,3.500120*%
%ADD23O,1.700000X1.500000*%
%ADD24R,1.500000X1.300000*%
%ADD25C,1.700000*%
%ADD26C,0.600000*%
%ADD27C,1.399540*%
%ADD28C,0.508000*%
%ADD29C,0.381000*%
%ADD30C,0.203200*%
%ADD31C,0.127000*%
G04 APERTURE END LIST*
D10*
D11*
X50535800Y-88534600D03*
X50535800Y-85994600D03*
X50535800Y-83454600D03*
X50535800Y-80914600D03*
X50535800Y-78374600D03*
X50535800Y-75834600D03*
X45455800Y-75834600D03*
X42915800Y-75834600D03*
X40375800Y-75834600D03*
X37835800Y-75834600D03*
X37835800Y-88534600D03*
X40375800Y-88534600D03*
X42915800Y-88534600D03*
X45455800Y-88534600D03*
D12*
X71160600Y-77434800D03*
D13*
X73700600Y-77434800D03*
X76240600Y-77434800D03*
X78780600Y-77434800D03*
D11*
X63540600Y-87554800D03*
X66080600Y-87554800D03*
X61000600Y-87554800D03*
X58460600Y-87554800D03*
X55920600Y-87554800D03*
X53380600Y-87554800D03*
D14*
X68620600Y-87554800D03*
D15*
X53380600Y-85054800D03*
D16*
X55920600Y-85054800D03*
D17*
X68620600Y-82514800D03*
X68620600Y-85054800D03*
D18*
X68620600Y-79974800D03*
D19*
X59730600Y-82514800D03*
D20*
X48053100Y-86197300D03*
D21*
X48053100Y-78697300D03*
X48053100Y-75197300D03*
X48053100Y-89197300D03*
X25053100Y-89197300D03*
X25053100Y-75197300D03*
D22*
X26075600Y-81879800D03*
D23*
X88940600Y-87594800D03*
X83860600Y-87594800D03*
X86400600Y-87594800D03*
X81320600Y-87594800D03*
X76240600Y-87594800D03*
X78780600Y-87594800D03*
X73700600Y-87594800D03*
D24*
X71160600Y-87594800D03*
D25*
X66080600Y-77434800D03*
X68620600Y-77434800D03*
D18*
X63540600Y-77434800D03*
X58460600Y-77434800D03*
D14*
X61000600Y-77434800D03*
D25*
X55920600Y-77434800D03*
D12*
X53380600Y-77434800D03*
D26*
X75836461Y-78989047D03*
X82006400Y-86451800D03*
D27*
X63614037Y-82529228D03*
X66149184Y-80765883D03*
X62706287Y-79878300D03*
D26*
X85271090Y-83967039D03*
D27*
X54371200Y-81651200D03*
D26*
X90439200Y-85207200D03*
X90435600Y-77244800D03*
X80787200Y-77231600D03*
D27*
X64180699Y-84025042D03*
D26*
X81713838Y-83717779D03*
X74894400Y-83886400D03*
X69890600Y-87163000D03*
X78883928Y-86344801D03*
X71104145Y-85862880D03*
X72856074Y-79310689D03*
X87494919Y-78432574D03*
X89684799Y-79249728D03*
X72180178Y-79738688D03*
X89685180Y-81548787D03*
X82458185Y-84044797D03*
X66650345Y-82613157D03*
X76514317Y-81981140D03*
X86927167Y-81107964D03*
X84277885Y-80687531D03*
X83906576Y-82984682D03*
X83582178Y-83715972D03*
X81982483Y-81668564D03*
X62470062Y-86556682D03*
X85384600Y-86388300D03*
D27*
X59835600Y-83244800D03*
D26*
X75484322Y-80797740D03*
X82082600Y-79560491D03*
X77907740Y-85722876D03*
X76367600Y-80795821D03*
X79212400Y-80473854D03*
X85765600Y-83086300D03*
X87226100Y-82451300D03*
X88242100Y-86324800D03*
X84779720Y-81435300D03*
X89247065Y-82218171D03*
X73636403Y-80161279D03*
D28*
X76086707Y-78738801D02*
X75836461Y-78989047D01*
X79406521Y-78738801D02*
X76086707Y-78738801D01*
D29*
X73187515Y-78620188D02*
X73242628Y-78675301D01*
X73242628Y-78675301D02*
X75522715Y-78675301D01*
X71160600Y-77434800D02*
X72345988Y-78620188D01*
X75522715Y-78675301D02*
X75536462Y-78689048D01*
X75536462Y-78689048D02*
X75836461Y-78989047D01*
X72345988Y-78620188D02*
X73187515Y-78620188D01*
D28*
X80634800Y-77790400D02*
X80354922Y-77790400D01*
X80354922Y-77790400D02*
X79406521Y-78738801D01*
D30*
X81801333Y-86319953D02*
X82006400Y-86451800D01*
X83342440Y-86319953D02*
X81801333Y-86319953D01*
X85271090Y-83967039D02*
X85271090Y-84391303D01*
X85271090Y-84391303D02*
X83342440Y-86319953D01*
D28*
X59938587Y-86076813D02*
X61840321Y-86076813D01*
X62730099Y-85187035D02*
X64802943Y-85187035D01*
X61840321Y-86076813D02*
X62730099Y-85187035D01*
X65334489Y-82464407D02*
X64862241Y-81992159D01*
X64862241Y-81992159D02*
X64699541Y-81829459D01*
X64802943Y-85187035D02*
X65334489Y-84655489D01*
X64699541Y-81829459D02*
X64313806Y-81829459D01*
X64313806Y-81829459D02*
X63614037Y-82529228D01*
X58460600Y-87554800D02*
X59938587Y-86076813D01*
X65334489Y-84655489D02*
X65334489Y-82464407D01*
X65357995Y-81042200D02*
X65634312Y-80765883D01*
X65634312Y-80765883D02*
X66149184Y-80765883D01*
X62006518Y-79178531D02*
X62706287Y-79878300D01*
X55630999Y-78994401D02*
X61822388Y-78994401D01*
X55285600Y-79339800D02*
X55630999Y-78994401D01*
X61822388Y-78994401D02*
X62006518Y-79178531D01*
X65357995Y-81042200D02*
X64862241Y-81992159D01*
X53380600Y-77434800D02*
X55285600Y-79339800D01*
X55336400Y-80686000D02*
X54371200Y-81651200D01*
X55285600Y-80736800D02*
X55336400Y-80686000D01*
X55285600Y-79339800D02*
X55285600Y-80736800D01*
X65626268Y-80773927D02*
X65357995Y-81042200D01*
X48053100Y-89197300D02*
X48053100Y-89036100D01*
X48053100Y-89036100D02*
X50523100Y-86566100D01*
X50523100Y-86566100D02*
X50523100Y-86007300D01*
X88930797Y-79611650D02*
X89327245Y-80008098D01*
X90135882Y-80008098D02*
X90439200Y-79704780D01*
X80787200Y-77231600D02*
X87375097Y-77231600D01*
X90439200Y-79704780D02*
X90439200Y-77638000D01*
X90439200Y-77638000D02*
X90439200Y-77248400D01*
X88930797Y-78787300D02*
X88930797Y-79611650D01*
X89327245Y-80008098D02*
X90135882Y-80008098D01*
X87375097Y-77231600D02*
X88930797Y-78787300D01*
X90439200Y-77638000D02*
X90439200Y-85207200D01*
X90439200Y-77248400D02*
X90435600Y-77244800D01*
D29*
X80787200Y-77231600D02*
X80787200Y-77183990D01*
X80787200Y-77183990D02*
X80634800Y-77336390D01*
X80634800Y-77336390D02*
X80634800Y-77790400D01*
D28*
X25053100Y-89197300D02*
X34584600Y-89197300D01*
X34584600Y-89197300D02*
X35831500Y-89197300D01*
X35831500Y-89197300D02*
X36616600Y-89982400D01*
X36616600Y-89982400D02*
X47268000Y-89982400D01*
X47268000Y-89982400D02*
X48053100Y-89197300D01*
X62692400Y-84025042D02*
X63191075Y-84025042D01*
X61348641Y-85368801D02*
X62692400Y-84025042D01*
X58106599Y-85368801D02*
X61348641Y-85368801D01*
X55920600Y-87554800D02*
X58106599Y-85368801D01*
X63191075Y-84025042D02*
X64180699Y-84025042D01*
X50523100Y-88547300D02*
X50523100Y-88166300D01*
X50523100Y-88166300D02*
X52364600Y-86324800D01*
X52364600Y-86324800D02*
X54690600Y-86324800D01*
X54690600Y-86324800D02*
X55920600Y-87554800D01*
D31*
X77326607Y-83852686D02*
X77461514Y-83717779D01*
X81289574Y-83717779D02*
X81713838Y-83717779D01*
X77461514Y-83717779D02*
X81289574Y-83717779D01*
X75318664Y-83886400D02*
X75352378Y-83852686D01*
X75352378Y-83852686D02*
X77326607Y-83852686D01*
X74894400Y-83886400D02*
X75318664Y-83886400D01*
X69890600Y-87163000D02*
X69890600Y-86959800D01*
X72760800Y-86655000D02*
X73700600Y-87594800D01*
X70195400Y-86655000D02*
X72760800Y-86655000D01*
X69890600Y-86959800D02*
X70195400Y-86655000D01*
X73700600Y-87594800D02*
X73700600Y-87442400D01*
X78459664Y-86344801D02*
X78883928Y-86344801D01*
X76266000Y-85966011D02*
X76644790Y-86344801D01*
X76644790Y-86344801D02*
X78459664Y-86344801D01*
X76266000Y-85966011D02*
X75892297Y-86339714D01*
X71404144Y-86162879D02*
X71104145Y-85862880D01*
X71560796Y-86319531D02*
X71404144Y-86162879D01*
X74084820Y-86319531D02*
X71560796Y-86319531D01*
X75892297Y-86339714D02*
X74105003Y-86339714D01*
X74105003Y-86339714D02*
X74084820Y-86319531D01*
X76240600Y-87594800D02*
X76240600Y-85966011D01*
X76266000Y-85969200D02*
X76266000Y-85966011D01*
X76243789Y-85969200D02*
X76266000Y-85969200D01*
X76240600Y-85966011D02*
X76243789Y-85969200D01*
X76240600Y-87594800D02*
X76240600Y-87442400D01*
D28*
X48053100Y-78697300D02*
X48053100Y-75197300D01*
D31*
X79620881Y-79256312D02*
X76435299Y-79256312D01*
X81377812Y-78022190D02*
X81060573Y-78339429D01*
X87494919Y-78432574D02*
X87084535Y-78022190D01*
X80537763Y-78339429D02*
X79620881Y-79256312D01*
X81060573Y-78339429D02*
X80537763Y-78339429D01*
X72895996Y-79270767D02*
X72856074Y-79310689D01*
X74042336Y-79270767D02*
X72895996Y-79270767D01*
X74324136Y-79552567D02*
X74042336Y-79270767D01*
X76139044Y-79552567D02*
X74324136Y-79552567D01*
X76435299Y-79256312D02*
X76139044Y-79552567D01*
X87084535Y-78022190D02*
X81377812Y-78022190D01*
X78780600Y-77434800D02*
X79630599Y-76584801D01*
X89684799Y-78825464D02*
X89684799Y-79249728D01*
X89684799Y-78420158D02*
X89684799Y-78825464D01*
X87849442Y-76584801D02*
X89684799Y-78420158D01*
X79630599Y-76584801D02*
X87849442Y-76584801D01*
X79756333Y-79583323D02*
X76570751Y-79583323D01*
X76570751Y-79583323D02*
X76274496Y-79879578D01*
X76274496Y-79879578D02*
X74188684Y-79879578D01*
X82196900Y-78387300D02*
X81917760Y-78666440D01*
X72925013Y-80038687D02*
X72480177Y-80038687D01*
X72480177Y-80038687D02*
X72180178Y-79738688D01*
X73365922Y-79597778D02*
X72925013Y-80038687D01*
X73906884Y-79597778D02*
X73365922Y-79597778D01*
X74188684Y-79879578D02*
X73906884Y-79597778D01*
X80673216Y-78666440D02*
X79756333Y-79583323D01*
X81917760Y-78666440D02*
X80673216Y-78666440D01*
X61000600Y-77434800D02*
X61937202Y-77434800D01*
X62524600Y-78022198D02*
X62550000Y-78022198D01*
X61937202Y-77434800D02*
X62524600Y-78022198D01*
D30*
X86523693Y-78387300D02*
X89385181Y-81248788D01*
X89385181Y-81248788D02*
X89685180Y-81548787D01*
X82196900Y-78387300D02*
X86523693Y-78387300D01*
D31*
X67842509Y-83805321D02*
X66950344Y-82913156D01*
X77462059Y-84179697D02*
X76104966Y-84179697D01*
X66950344Y-82913156D02*
X66650345Y-82613157D01*
X72578121Y-83805321D02*
X67842509Y-83805321D01*
X75803988Y-84480675D02*
X73253475Y-84480675D01*
X76104966Y-84179697D02*
X75803988Y-84480675D01*
X77580745Y-84061011D02*
X77462059Y-84179697D01*
X80123611Y-84061011D02*
X77580745Y-84061011D01*
X80457000Y-84394400D02*
X80123611Y-84061011D01*
X73253475Y-84480675D02*
X72578121Y-83805321D01*
X82158186Y-84344796D02*
X82458185Y-84044797D01*
X82108582Y-84394400D02*
X82158186Y-84344796D01*
X80457000Y-84394400D02*
X82108582Y-84394400D01*
X80457000Y-84394400D02*
X80457002Y-84394400D01*
X71855254Y-81686334D02*
X76219511Y-81686334D01*
X76814316Y-81681141D02*
X76514317Y-81981140D01*
X79800332Y-81551131D02*
X76944326Y-81551131D01*
X81227452Y-80124011D02*
X79800332Y-81551131D01*
X69127720Y-78958800D02*
X71855254Y-81686334D01*
X86927167Y-81107964D02*
X85943214Y-80124011D01*
X67604600Y-78958800D02*
X69127720Y-78958800D01*
X85943214Y-80124011D02*
X81227452Y-80124011D01*
X76219511Y-81686334D02*
X76514317Y-81981140D01*
X76944326Y-81551131D02*
X76814316Y-81681141D01*
X66080600Y-77434800D02*
X67604600Y-78958800D01*
X79915105Y-81898821D02*
X81362904Y-80451022D01*
X83617112Y-80451022D02*
X83853621Y-80687531D01*
X81362904Y-80451022D02*
X83617112Y-80451022D01*
X77394124Y-81898821D02*
X79915105Y-81898821D01*
X76748303Y-82544642D02*
X77394124Y-81898821D01*
X76243835Y-82544642D02*
X76748303Y-82544642D01*
X75813826Y-82114633D02*
X76243835Y-82544642D01*
X71821093Y-82114633D02*
X75813826Y-82114633D01*
X68620600Y-79974800D02*
X69681260Y-79974800D01*
X69681260Y-79974800D02*
X71821093Y-82114633D01*
X83853621Y-80687531D02*
X84277885Y-80687531D01*
D30*
X68620600Y-79974800D02*
X69382600Y-79974800D01*
D31*
X78863764Y-85042044D02*
X79578153Y-85756433D01*
X77987101Y-85042044D02*
X78863764Y-85042044D01*
X68620600Y-87554800D02*
X68670600Y-87554800D01*
X84206575Y-84643151D02*
X84206575Y-83284681D01*
X79578153Y-85756433D02*
X83093293Y-85756433D01*
X77868415Y-85160730D02*
X77987101Y-85042044D01*
X72539543Y-85992521D02*
X75751630Y-85992521D01*
X71846400Y-85299378D02*
X72539543Y-85992521D01*
X70850349Y-85299378D02*
X71846400Y-85299378D01*
X69497600Y-86727800D02*
X69497600Y-86652127D01*
X75751630Y-85992521D02*
X76583421Y-85160730D01*
X76583421Y-85160730D02*
X77868415Y-85160730D01*
X68670600Y-87554800D02*
X69497600Y-86727800D01*
X84206575Y-83284681D02*
X83906576Y-82984682D01*
X83093293Y-85756433D02*
X84206575Y-84643151D01*
X69497600Y-86652127D02*
X70850349Y-85299378D01*
X76447969Y-84833719D02*
X77732963Y-84833719D01*
X83582178Y-84217251D02*
X83582178Y-84140236D01*
X70714897Y-84972367D02*
X72617956Y-84972367D01*
X75616177Y-85665510D02*
X76447969Y-84833719D01*
X66080600Y-87554800D02*
X67107400Y-86528000D01*
X77851649Y-84715033D02*
X78999215Y-84715033D01*
X69159263Y-86528000D02*
X70714897Y-84972367D01*
X82427687Y-85371742D02*
X83582178Y-84217251D01*
X67107400Y-86528000D02*
X69159263Y-86528000D01*
X83582178Y-84140236D02*
X83582178Y-83715972D01*
X72617956Y-84972367D02*
X73311099Y-85665510D01*
X73311099Y-85665510D02*
X75616177Y-85665510D01*
X79655924Y-85371742D02*
X82427687Y-85371742D01*
X77732963Y-84833719D02*
X77851649Y-84715033D01*
X78999215Y-84715033D02*
X79655924Y-85371742D01*
X66086825Y-82361870D02*
X66086825Y-85704546D01*
X80771194Y-82879853D02*
X77836976Y-82879854D01*
X81982483Y-81668564D02*
X80771194Y-82879853D01*
X66399039Y-82049656D02*
X66086825Y-82361870D01*
X67213846Y-82577520D02*
X67213846Y-82342676D01*
X69853147Y-83207324D02*
X69582161Y-83478310D01*
X63322198Y-85704546D02*
X62470062Y-86556682D01*
X66086825Y-85704546D02*
X63322198Y-85704546D01*
X67213846Y-82342676D02*
X66920826Y-82049656D01*
X75416632Y-83207324D02*
X69853147Y-83207324D01*
X77836976Y-82879854D02*
X77191155Y-83525675D01*
X77191155Y-83525675D02*
X75734983Y-83525675D01*
X69582161Y-83478310D02*
X68114636Y-83478310D01*
X68114636Y-83478310D02*
X67213846Y-82577520D01*
X66920826Y-82049656D02*
X66399039Y-82049656D01*
X75734983Y-83525675D02*
X75416632Y-83207324D01*
X77597511Y-84506708D02*
X77716197Y-84388022D01*
X75904125Y-84915100D02*
X76312517Y-84506708D01*
X79791376Y-85044731D02*
X82292235Y-85044731D01*
X82989096Y-83741724D02*
X82989096Y-82765576D01*
X83021687Y-83774315D02*
X82989096Y-83741724D01*
X76312517Y-84506708D02*
X77597511Y-84506708D01*
X82292235Y-85044731D02*
X83021687Y-84315279D01*
X83333494Y-82421178D02*
X85189378Y-82421178D01*
X79134667Y-84388022D02*
X79791376Y-85044731D01*
X77716197Y-84388022D02*
X79134667Y-84388022D01*
X73179900Y-84915100D02*
X75904125Y-84915100D01*
X82989096Y-82765576D02*
X83333494Y-82421178D01*
X83021687Y-84315279D02*
X83021687Y-83774315D01*
X85189378Y-82421178D02*
X85206800Y-82438600D01*
X63540600Y-87554800D02*
X64495000Y-87554800D01*
X72887800Y-84623000D02*
X73179900Y-84915100D01*
X73179900Y-84915100D02*
X73192600Y-84927800D01*
X70525600Y-84623000D02*
X72887800Y-84623000D01*
X68950793Y-86197807D02*
X70525600Y-84623000D01*
X65851993Y-86197807D02*
X68950793Y-86197807D01*
X64495000Y-87554800D02*
X65851993Y-86197807D01*
D30*
X85206800Y-82438600D02*
X85321100Y-82324300D01*
X85321100Y-82324300D02*
X86019600Y-82324300D01*
X86527600Y-85245300D02*
X85384600Y-86388300D01*
X86527600Y-82832300D02*
X86527600Y-85245300D01*
X86019600Y-82324300D02*
X86527600Y-82832300D01*
D28*
X55920600Y-85054800D02*
X55920600Y-84318200D01*
X55920600Y-84318200D02*
X55209400Y-83607000D01*
X49475000Y-84775400D02*
X48053100Y-86197300D01*
X51069200Y-84775400D02*
X49475000Y-84775400D01*
X52237600Y-83607000D02*
X51069200Y-84775400D01*
X55209400Y-83607000D02*
X52237600Y-83607000D01*
D31*
X75784321Y-81097739D02*
X75484322Y-80797740D01*
X81269800Y-79560491D02*
X79763988Y-81066303D01*
X76638082Y-81359323D02*
X76045905Y-81359323D01*
X76931102Y-81066303D02*
X76638082Y-81359323D01*
X79763988Y-81066303D02*
X76931102Y-81066303D01*
X82082600Y-79560491D02*
X81269800Y-79560491D01*
X68620600Y-77434800D02*
X71983540Y-80797740D01*
X76045905Y-81359323D02*
X75784321Y-81097739D01*
X71983540Y-80797740D02*
X75060058Y-80797740D01*
X75060058Y-80797740D02*
X75484322Y-80797740D01*
X78332004Y-85722876D02*
X77907740Y-85722876D01*
X79082133Y-85722876D02*
X78332004Y-85722876D01*
X80077057Y-86717800D02*
X79082133Y-85722876D01*
X80343600Y-86717800D02*
X80077057Y-86717800D01*
X81320600Y-87594800D02*
X81220600Y-87594800D01*
X81220600Y-87594800D02*
X80343600Y-86717800D01*
X78601390Y-80660600D02*
X76502821Y-80660600D01*
X76502821Y-80660600D02*
X76367600Y-80795821D01*
X79212400Y-80473854D02*
X78788136Y-80473854D01*
X78788136Y-80473854D02*
X78601390Y-80660600D01*
X81320600Y-87594800D02*
X80634800Y-87594800D01*
X81320600Y-87594800D02*
X81320600Y-87747200D01*
D30*
X85765600Y-83086300D02*
X86065599Y-83386299D01*
X83860600Y-86515300D02*
X83860600Y-87594800D01*
X86065599Y-83386299D02*
X86065599Y-84310301D01*
X86065599Y-84310301D02*
X83860600Y-86515300D01*
X87226100Y-82451300D02*
X87162600Y-86832800D01*
X87162600Y-86832800D02*
X86400600Y-87594800D01*
X86781600Y-87213800D02*
X86400600Y-87594800D01*
D31*
X80186009Y-82552843D02*
X81633808Y-81105044D01*
X85029000Y-82057600D02*
X85415134Y-81671466D01*
X83743212Y-82057600D02*
X85029000Y-82057600D01*
X70322400Y-82235400D02*
X70855654Y-82768654D01*
X87360666Y-81671466D02*
X88242100Y-82552900D01*
X85415134Y-81671466D02*
X87360666Y-81671466D01*
X77701524Y-82552843D02*
X80186009Y-82552843D01*
X75870435Y-83198664D02*
X77055703Y-83198664D01*
X71078992Y-82768655D02*
X75440426Y-82768655D01*
X70855654Y-82768654D02*
X71078992Y-82768655D01*
X75440426Y-82768655D02*
X75870435Y-83198664D01*
X82790656Y-81105044D02*
X83743212Y-82057600D01*
X77055703Y-83198664D02*
X77701524Y-82552843D01*
X81633808Y-81105044D02*
X82790656Y-81105044D01*
X63792426Y-81166426D02*
X63796774Y-81166426D01*
X67147400Y-80254200D02*
X67147400Y-80257758D01*
X66639400Y-79746200D02*
X67147400Y-80254200D01*
X65217000Y-79746200D02*
X66639400Y-79746200D01*
X63796774Y-81166426D02*
X65217000Y-79746200D01*
X60842062Y-79847800D02*
X62162862Y-81168600D01*
X63790252Y-81168600D02*
X63792426Y-81166426D01*
X62162862Y-81168600D02*
X63790252Y-81168600D01*
X58206600Y-79847800D02*
X60842062Y-79847800D01*
X50523100Y-80927300D02*
X52537283Y-82941483D01*
X55112917Y-82941483D02*
X58206600Y-79847800D01*
X52537283Y-82941483D02*
X55112917Y-82941483D01*
X67195271Y-80305629D02*
X67195271Y-81194000D01*
X69611200Y-81524200D02*
X70322400Y-82235400D01*
X67325200Y-81524200D02*
X69611200Y-81524200D01*
X67195271Y-81394271D02*
X67325200Y-81524200D01*
X67147400Y-80257758D02*
X67195271Y-80305629D01*
X67195271Y-81194000D02*
X67195271Y-81394271D01*
X70322400Y-82235400D02*
X70373200Y-82235400D01*
X50523100Y-80927300D02*
X50523100Y-80749500D01*
D30*
X88242100Y-82552900D02*
X88242100Y-82959300D01*
X88242100Y-86324800D02*
X88242100Y-82959300D01*
D31*
X76005886Y-82871653D02*
X75575877Y-82441644D01*
X76920251Y-82871653D02*
X76005886Y-82871653D01*
X77566072Y-82225832D02*
X76920251Y-82871653D01*
X81498356Y-80778033D02*
X80050557Y-82225832D01*
X82926108Y-80778033D02*
X81498356Y-80778033D01*
X83583375Y-81435300D02*
X82926108Y-80778033D01*
X84779720Y-81435300D02*
X83583375Y-81435300D01*
X80050557Y-82225832D02*
X77566072Y-82225832D01*
X75575877Y-82441644D02*
X71214444Y-82441644D01*
X71214444Y-82441644D02*
X69908988Y-81136188D01*
X62298312Y-80841590D02*
X63601055Y-80841590D01*
X51561301Y-78765101D02*
X51561301Y-80503131D01*
X67579200Y-80201695D02*
X67579200Y-81136188D01*
X54833572Y-82614472D02*
X57928822Y-79519222D01*
X60975943Y-79519222D02*
X60977514Y-79520792D01*
X51561301Y-80503131D02*
X53672642Y-82614472D01*
X53672642Y-82614472D02*
X54833572Y-82614472D01*
X51183500Y-78387300D02*
X51561301Y-78765101D01*
X57928822Y-79519222D02*
X60975943Y-79519222D01*
X60977514Y-79520792D02*
X62298312Y-80841590D01*
X65076808Y-79365837D02*
X66743342Y-79365837D01*
X63601055Y-80841590D02*
X65076808Y-79365837D01*
X66743342Y-79365837D02*
X67579200Y-80201695D01*
D30*
X67579200Y-81136188D02*
X69908988Y-81136188D01*
D28*
X50523100Y-83467300D02*
X34978300Y-83467300D01*
X26708300Y-75197300D02*
X25053100Y-75197300D01*
X34978300Y-83467300D02*
X26708300Y-75197300D01*
D31*
X73681713Y-80206589D02*
X73636403Y-80161279D01*
D30*
X85923551Y-78894657D02*
X88947066Y-81918172D01*
X83200200Y-78894657D02*
X85923551Y-78894657D01*
X88947066Y-81918172D02*
X89247065Y-82218171D01*
D31*
X76706203Y-79910334D02*
X76409948Y-80206589D01*
X79957404Y-79910334D02*
X76706203Y-79910334D01*
X80874287Y-78993451D02*
X79957404Y-79910334D01*
X83101406Y-78993451D02*
X80874287Y-78993451D01*
X83200200Y-78894657D02*
X83101406Y-78993451D01*
X76409948Y-80206589D02*
X73681713Y-80206589D01*
X58460600Y-77434800D02*
X58689200Y-77434800D01*
M02*
