G04 #@! TF.FileFunction,Copper,L1,Top,Signal*
%FSLAX46Y46*%
G04 Gerber Fmt 4.6, Leading zero omitted, Abs format (unit mm)*
G04 Created by KiCad (PCBNEW 4.0.2+dfsg1-stable) date 2018年05月25日 15時51分19秒*
%MOMM*%
G01*
G04 APERTURE LIST*
%ADD10C,0.100000*%
%ADD11C,0.300000*%
%ADD12C,1.524000*%
%ADD13R,1.700000X1.700000*%
%ADD14O,1.700000X1.700000*%
%ADD15O,1.500000X1.400000*%
%ADD16R,0.400000X1.000000*%
%ADD17R,1.100000X0.400000*%
%ADD18R,1.400000X0.400000*%
%ADD19R,0.400000X1.400000*%
%ADD20R,0.600000X1.400000*%
%ADD21R,2.032000X1.600000*%
%ADD22O,2.032000X2.032000*%
%ADD23R,0.900000X1.000000*%
%ADD24R,0.900000X1.300000*%
%ADD25O,1.600000X1.400000*%
%ADD26C,1.500000*%
%ADD27R,0.800000X1.400000*%
%ADD28R,1.524000X0.850000*%
%ADD29R,2.000000X0.850000*%
%ADD30R,1.501140X0.701040*%
%ADD31R,1.501140X1.000760*%
%ADD32R,0.800100X1.998980*%
%ADD33R,1.143000X0.508000*%
%ADD34O,1.500000X2.000000*%
%ADD35R,2.000000X2.000000*%
%ADD36R,0.800000X0.750000*%
%ADD37R,0.800000X1.100000*%
%ADD38R,2.000000X1.100000*%
%ADD39C,3.500120*%
%ADD40O,1.700000X1.500000*%
%ADD41R,1.500000X1.300000*%
%ADD42C,1.700000*%
%ADD43O,1.500000X1.200000*%
%ADD44R,0.800000X0.800000*%
%ADD45O,0.800000X0.800000*%
%ADD46R,0.500000X0.900000*%
%ADD47C,0.600000*%
%ADD48C,1.399540*%
%ADD49C,0.381000*%
%ADD50C,0.203200*%
%ADD51C,0.508000*%
%ADD52C,0.250000*%
%ADD53C,0.127000*%
%ADD54C,1.016000*%
G04 APERTURE END LIST*
D10*
D11*
X120837207Y-83336229D02*
X120551493Y-83336229D01*
X120417564Y-83264800D01*
X120292564Y-83121943D01*
X120256850Y-82836229D01*
X120319350Y-82336229D01*
X120426493Y-82050514D01*
X120587207Y-81907657D01*
X120738993Y-81836229D01*
X121024707Y-81836229D01*
X121158636Y-81907657D01*
X121283636Y-82050514D01*
X121319350Y-82336229D01*
X121256850Y-82836229D01*
X121149707Y-83121943D01*
X120988993Y-83264800D01*
X120837207Y-83336229D01*
X119738992Y-81836229D02*
X119551492Y-83336229D01*
X118980064Y-83336229D01*
X118846135Y-83264800D01*
X118783636Y-83193371D01*
X118730064Y-83050514D01*
X118756849Y-82836229D01*
X118846136Y-82693371D01*
X118926492Y-82621943D01*
X119078279Y-82550514D01*
X119649707Y-82550514D01*
X118140778Y-82621943D02*
X117640778Y-82621943D01*
X117524706Y-81836229D02*
X118238992Y-81836229D01*
X118051492Y-83336229D01*
X117337206Y-83336229D01*
X116881849Y-81836229D02*
X116694349Y-83336229D01*
X116024706Y-81836229D01*
X115837206Y-83336229D01*
X114712206Y-82621943D02*
X115212206Y-82621943D01*
X115310420Y-81836229D02*
X115122920Y-83336229D01*
X114408634Y-83336229D01*
X113551492Y-83336229D02*
X113265778Y-83336229D01*
X113131849Y-83264800D01*
X113006849Y-83121943D01*
X112971135Y-82836229D01*
X113033635Y-82336229D01*
X113140778Y-82050514D01*
X113301492Y-81907657D01*
X113453278Y-81836229D01*
X113738992Y-81836229D01*
X113872921Y-81907657D01*
X113997921Y-82050514D01*
X114033635Y-82336229D01*
X113971135Y-82836229D01*
X113863992Y-83121943D01*
X113703278Y-83264800D01*
X113551492Y-83336229D01*
X111596134Y-81836229D02*
X112006849Y-82550514D01*
X112453277Y-81836229D02*
X112265777Y-83336229D01*
X111694349Y-83336229D01*
X111560420Y-83264800D01*
X111497921Y-83193371D01*
X111444349Y-83050514D01*
X111471134Y-82836229D01*
X111560421Y-82693371D01*
X111640777Y-82621943D01*
X111792564Y-82550514D01*
X112363992Y-82550514D01*
X110078277Y-81979086D02*
X110158635Y-81907657D01*
X110381849Y-81836229D01*
X110524706Y-81836229D01*
X110730063Y-81907657D01*
X110855064Y-82050514D01*
X110908635Y-82193371D01*
X110944349Y-82479086D01*
X110917564Y-82693371D01*
X110810420Y-82979086D01*
X110721135Y-83121943D01*
X110560420Y-83264800D01*
X110337206Y-83336229D01*
X110194349Y-83336229D01*
X109988992Y-83264800D01*
X109926492Y-83193371D01*
X109355063Y-82621943D02*
X108855063Y-82621943D01*
X108738991Y-81836229D02*
X109453277Y-81836229D01*
X109265777Y-83336229D01*
X108551491Y-83336229D01*
D12*
X50535800Y-88534600D03*
X50535800Y-85994600D03*
X50535800Y-83454600D03*
X50535800Y-80914600D03*
X50535800Y-78374600D03*
X50535800Y-75834600D03*
X45455800Y-75834600D03*
X42915800Y-75834600D03*
X40375800Y-75834600D03*
X37835800Y-75834600D03*
X37835800Y-88534600D03*
X40375800Y-88534600D03*
X42915800Y-88534600D03*
X45455800Y-88534600D03*
D13*
X71160600Y-77434800D03*
D14*
X73700600Y-77434800D03*
X76240600Y-77434800D03*
X78780600Y-77434800D03*
D12*
X63540600Y-87554800D03*
X66080600Y-87554800D03*
X61000600Y-87554800D03*
X58460600Y-87554800D03*
X55920600Y-87554800D03*
X53380600Y-87554800D03*
D15*
X68620600Y-87554800D03*
D16*
X86485600Y-79394800D03*
X87885600Y-79394800D03*
X85085600Y-79394800D03*
X83685600Y-79394800D03*
D17*
X80685600Y-85094800D03*
D18*
X80535600Y-84394800D03*
X80535600Y-83694800D03*
X80535600Y-82294800D03*
X80535600Y-82994800D03*
X80535600Y-78794800D03*
X80535600Y-78094800D03*
D17*
X80685600Y-77394800D03*
D18*
X80535600Y-79494800D03*
X80535600Y-80194800D03*
X80535600Y-81594800D03*
X80535600Y-80894800D03*
D19*
X88935600Y-85244800D03*
X88235600Y-85244800D03*
X86835600Y-85244800D03*
X87535600Y-85244800D03*
X86135600Y-85244800D03*
X81935600Y-85244800D03*
X83335600Y-85244800D03*
X82635600Y-85244800D03*
X84035600Y-85244800D03*
X84735600Y-85244800D03*
X85435600Y-85244800D03*
X85435600Y-77244800D03*
X84735600Y-77244800D03*
X84035600Y-77244800D03*
X82635600Y-77244800D03*
X83335600Y-77244800D03*
X81935600Y-77244800D03*
X86135600Y-77244800D03*
X87535600Y-77244800D03*
X86835600Y-77244800D03*
X88235600Y-77244800D03*
X88935600Y-77244800D03*
X89635600Y-77244800D03*
D20*
X90435600Y-85244800D03*
X90435600Y-77244800D03*
D21*
X53380600Y-85054800D03*
D22*
X55920600Y-85054800D03*
D23*
X62732000Y-85275200D03*
D24*
X66232000Y-81225200D03*
X66232000Y-85125200D03*
D25*
X68620600Y-82514800D03*
X68620600Y-85054800D03*
D26*
X68620600Y-79974800D03*
D27*
X60930600Y-81814800D03*
D28*
X61230600Y-81514800D03*
D29*
X61030600Y-83514800D03*
D28*
X58030600Y-83514800D03*
D10*
G36*
X54019410Y-82651960D02*
X53270110Y-82151580D01*
X53270110Y-81150820D01*
X54019410Y-80650440D01*
X54019410Y-82651960D01*
X54019410Y-82651960D01*
G37*
D30*
X52519540Y-83152340D03*
X52519540Y-80150060D03*
X56222860Y-83152340D03*
D31*
X56222860Y-81651200D03*
D30*
X56222860Y-80150060D03*
D31*
X52519540Y-81651200D03*
D10*
G36*
X54722990Y-80650440D02*
X55472290Y-81150820D01*
X55472290Y-82151580D01*
X54722990Y-82651960D01*
X54722990Y-80650440D01*
X54722990Y-80650440D01*
G37*
D32*
X54371200Y-81651200D03*
D33*
X71795600Y-85054800D03*
X71795600Y-83784800D03*
X71795600Y-82514800D03*
X71795600Y-81244800D03*
X78145600Y-81244800D03*
X78145600Y-82514800D03*
X78145600Y-83784800D03*
X78145600Y-85054800D03*
D34*
X48053100Y-86197300D03*
D35*
X48053100Y-78697300D03*
X48053100Y-75197300D03*
X48053100Y-89197300D03*
X25053100Y-89197300D03*
X25053100Y-75197300D03*
D36*
X60048800Y-79898600D03*
X58548800Y-79898600D03*
X78959100Y-79276300D03*
X77459100Y-79276300D03*
D37*
X57740800Y-85740600D03*
D38*
X59640800Y-85740600D03*
D36*
X74385000Y-79339800D03*
X75885000Y-79339800D03*
D39*
X26075600Y-81879800D03*
D40*
X88940600Y-87594800D03*
X83860600Y-87594800D03*
X86400600Y-87594800D03*
X81320600Y-87594800D03*
X76240600Y-87594800D03*
X78780600Y-87594800D03*
X73700600Y-87594800D03*
D41*
X71160600Y-87594800D03*
D42*
X66080600Y-77434800D03*
X68620600Y-77434800D03*
D26*
X63540600Y-77434800D03*
X58460600Y-77434800D03*
D15*
X61000600Y-77434800D03*
D42*
X55920600Y-77434800D03*
D13*
X53380600Y-77434800D03*
D43*
X13585600Y-84744800D03*
X13585600Y-82744800D03*
D26*
X13585600Y-80744800D03*
X13585600Y-78744800D03*
D36*
X5535600Y-74944800D03*
X4035600Y-74944800D03*
X4035600Y-88544800D03*
X5535600Y-88544800D03*
D44*
X-414400Y-75744800D03*
D45*
X-414400Y-76994800D03*
X-414400Y-78244800D03*
X-414400Y-79494800D03*
X-414400Y-80744800D03*
X-414400Y-81994800D03*
X-414400Y-83244800D03*
X-414400Y-84494800D03*
X-414400Y-85744800D03*
X-414400Y-86994800D03*
D44*
X10185600Y-89944800D03*
D45*
X11435600Y-89944800D03*
X12685600Y-89944800D03*
X13935600Y-89944800D03*
X15185600Y-89944800D03*
D46*
X12935600Y-72944800D03*
X11435600Y-72944800D03*
X12935600Y-75144800D03*
X11435600Y-75144800D03*
X15035600Y-72944800D03*
X16535600Y-72944800D03*
X15035600Y-75144800D03*
X16535600Y-75144800D03*
X5635600Y-90744800D03*
X7135600Y-90744800D03*
D17*
X9435600Y-85969800D03*
X9435600Y-85319800D03*
X9435600Y-84669800D03*
X9435600Y-84019800D03*
X9435600Y-83369800D03*
X9435600Y-82719800D03*
X9435600Y-82069800D03*
X9435600Y-81419800D03*
X9435600Y-80769800D03*
X9435600Y-80119800D03*
X9435600Y-79469800D03*
X9435600Y-78819800D03*
X9435600Y-78169800D03*
X9435600Y-77519800D03*
X3735600Y-77519800D03*
X3735600Y-78169800D03*
X3735600Y-78819800D03*
X3735600Y-79469800D03*
X3735600Y-80119800D03*
X3735600Y-80769800D03*
X3735600Y-81419800D03*
X3735600Y-82069800D03*
X3735600Y-82719800D03*
X3735600Y-83369800D03*
X3735600Y-84019800D03*
X3735600Y-84669800D03*
X3735600Y-85319800D03*
X3735600Y-85969800D03*
D47*
X75836461Y-78989047D03*
X82006400Y-86451800D03*
D48*
X63614037Y-82529228D03*
X66149184Y-80765883D03*
X62706287Y-79878300D03*
D47*
X85271090Y-83967039D03*
D48*
X54371200Y-81651200D03*
D47*
X90439200Y-85207200D03*
X90435600Y-77244800D03*
X80787200Y-77231600D03*
D48*
X64180699Y-84025042D03*
D47*
X81713838Y-83717779D03*
X74894400Y-83886400D03*
X69890600Y-87163000D03*
X78883928Y-86344801D03*
X71104145Y-85862880D03*
X72856074Y-79310689D03*
X87494919Y-78432574D03*
X89684799Y-79249728D03*
X72180178Y-79738688D03*
X89685180Y-81548787D03*
X16585600Y-78544800D03*
X82458185Y-84044797D03*
X66650345Y-82613157D03*
X76514317Y-81981140D03*
X86927167Y-81107964D03*
X84277885Y-80687531D03*
X83906576Y-82984682D03*
X83582178Y-83715972D03*
X81982483Y-81668564D03*
X62470062Y-86556682D03*
X85384600Y-86388300D03*
D48*
X59614397Y-82292076D03*
D47*
X75484322Y-80797740D03*
X82082600Y-79560491D03*
X77907740Y-85722876D03*
X76367600Y-80795821D03*
X79212400Y-80473854D03*
X85765600Y-83086300D03*
X87226100Y-82451300D03*
X88242100Y-86324800D03*
X84779720Y-81435300D03*
X89247065Y-82218171D03*
X73636403Y-80161279D03*
X16985600Y-79944800D03*
X2785600Y-76744800D03*
D48*
X7785600Y-73344800D03*
X5585600Y-74544800D03*
D47*
X7185600Y-86744800D03*
X10385600Y-72944800D03*
X10385600Y-75344800D03*
D49*
X77459100Y-79276300D02*
X76123714Y-79276300D01*
X76123714Y-79276300D02*
X75836461Y-78989047D01*
D50*
X81077070Y-86019954D02*
X82006400Y-86451800D01*
X80685600Y-85094800D02*
X80685600Y-85628484D01*
X80685600Y-85628484D02*
X81077070Y-86019954D01*
D51*
X62706287Y-79878300D02*
X62706287Y-81621478D01*
X62706287Y-81621478D02*
X62914268Y-81829459D01*
X62914268Y-81829459D02*
X63614037Y-82529228D01*
X66232000Y-80848699D02*
X66149184Y-80765883D01*
X66232000Y-81225200D02*
X66232000Y-80848699D01*
D50*
X85814093Y-83848300D02*
X85695354Y-83967039D01*
X89439100Y-83848300D02*
X85814093Y-83848300D01*
X90435600Y-84844800D02*
X89439100Y-83848300D01*
X85695354Y-83967039D02*
X85271090Y-83967039D01*
X90435600Y-85244800D02*
X90435600Y-84844800D01*
D51*
X54371200Y-81651200D02*
X52519540Y-81651200D01*
X56222860Y-81651200D02*
X54371200Y-81651200D01*
X55097640Y-81651200D02*
X53644760Y-81651200D01*
X50523100Y-86007300D02*
X50523100Y-85321500D01*
X50523100Y-85321500D02*
X49088000Y-83886400D01*
X49088000Y-83886400D02*
X49088000Y-82972000D01*
X49088000Y-82972000D02*
X49850000Y-82210000D01*
X49850000Y-82210000D02*
X51960740Y-82210000D01*
X51960740Y-82210000D02*
X52519540Y-81651200D01*
X58030600Y-83514800D02*
X58030600Y-83833800D01*
X58030600Y-83514800D02*
X58030600Y-82006800D01*
X58030600Y-82006800D02*
X58030600Y-80416800D01*
X56222860Y-81651200D02*
X57481430Y-81651200D01*
X57481430Y-81651200D02*
X57837030Y-82006800D01*
X57837030Y-82006800D02*
X58030600Y-82006800D01*
X58030600Y-80416800D02*
X58548800Y-79898600D01*
X66232000Y-81225200D02*
X67331000Y-81225200D01*
X67331000Y-81225200D02*
X68620600Y-82514800D01*
D49*
X80685600Y-77496400D02*
X80685600Y-77333200D01*
X80685600Y-77333200D02*
X80787200Y-77231600D01*
D51*
X54650600Y-81879800D02*
X54650600Y-81041600D01*
X58548800Y-79898600D02*
X58359000Y-79898600D01*
X54574400Y-81879800D02*
X54650600Y-81879800D01*
D49*
X78145600Y-80609800D02*
X78145600Y-81244800D01*
X78145600Y-79937800D02*
X78145600Y-80609800D01*
X77459100Y-79276300D02*
X77484100Y-79276300D01*
X77484100Y-79276300D02*
X78145600Y-79937800D01*
X68620600Y-82514800D02*
X68620600Y-81778200D01*
X68620600Y-81778200D02*
X71160600Y-79238200D01*
X71160600Y-79238200D02*
X71160600Y-77434800D01*
D50*
X90465100Y-85244800D02*
X90435600Y-85244800D01*
D51*
X58096740Y-83380940D02*
X58230600Y-83514800D01*
X58230600Y-83514800D02*
X58530600Y-83214800D01*
D49*
X77183599Y-80468667D02*
X77183599Y-81811201D01*
X77183599Y-81811201D02*
X77887198Y-82514800D01*
X75094099Y-80105301D02*
X76820233Y-80105301D01*
X76820233Y-80105301D02*
X77183599Y-80468667D01*
X74845927Y-80353473D02*
X75094099Y-80105301D01*
X77887198Y-82514800D02*
X78145600Y-82514800D01*
D51*
X65174166Y-84021199D02*
X65170323Y-84025042D01*
X62484601Y-82768801D02*
X62484601Y-83243808D01*
X67045201Y-84021199D02*
X65174166Y-84021199D01*
X68078802Y-85054800D02*
X67045201Y-84021199D01*
X68620600Y-85054800D02*
X68078802Y-85054800D01*
X65170323Y-84025042D02*
X64180699Y-84025042D01*
X63884954Y-83729297D02*
X64180699Y-84025042D01*
X62484601Y-83243808D02*
X62970090Y-83729297D01*
X62970090Y-83729297D02*
X63884954Y-83729297D01*
X61230600Y-81514800D02*
X62484601Y-82768801D01*
D49*
X72113100Y-83784800D02*
X71795600Y-83784800D01*
X74635699Y-81262201D02*
X72113100Y-83784800D01*
X74635699Y-80563701D02*
X74635699Y-81262201D01*
X74845927Y-80353473D02*
X74635699Y-80563701D01*
D51*
X55920600Y-77434800D02*
X55920600Y-78958800D01*
X55920600Y-78958800D02*
X55920600Y-78704800D01*
X55920600Y-78704800D02*
X55920600Y-78958800D01*
X58994000Y-78958800D02*
X55920600Y-78958800D01*
X55920600Y-78958800D02*
X54752200Y-78958800D01*
X60048800Y-79810400D02*
X59197200Y-78958800D01*
X59197200Y-78958800D02*
X58994000Y-78958800D01*
X60048800Y-79898600D02*
X60048800Y-79810400D01*
X60930600Y-81814800D02*
X60930600Y-80780400D01*
X60930600Y-80780400D02*
X60048800Y-79898600D01*
X60930600Y-81814800D02*
X61230600Y-81514800D01*
X53380600Y-79289000D02*
X54015600Y-79289000D01*
X54015600Y-79289000D02*
X54422000Y-79289000D01*
X53558400Y-80051000D02*
X53558400Y-79746200D01*
X53558400Y-79746200D02*
X54015600Y-79289000D01*
X54422000Y-79289000D02*
X54752200Y-78958800D01*
X53380600Y-79289000D02*
X52519540Y-80150060D01*
D49*
X71795600Y-85054800D02*
X71795600Y-83784800D01*
X68620600Y-85054800D02*
X71795600Y-85054800D01*
X74385000Y-79339800D02*
X74385000Y-80095800D01*
X74385000Y-80095800D02*
X74642673Y-80353473D01*
X74642673Y-80353473D02*
X74845927Y-80353473D01*
X76240600Y-77434800D02*
X76240600Y-77484200D01*
X76240600Y-77484200D02*
X74385000Y-79339800D01*
D52*
X78488850Y-78806050D02*
X79123850Y-78806050D01*
X80535600Y-78094800D02*
X79835100Y-78094800D01*
X79835100Y-78094800D02*
X79123850Y-78806050D01*
X79123850Y-78806050D02*
X78959100Y-78970800D01*
X78959100Y-78970800D02*
X78959100Y-79276300D01*
X77193100Y-78387300D02*
X78070100Y-78387300D01*
X78070100Y-78387300D02*
X78488850Y-78806050D01*
X78488850Y-78806050D02*
X78959100Y-79276300D01*
D50*
X77193100Y-78387300D02*
X76240600Y-77434800D01*
D51*
X52798940Y-80378660D02*
X53230740Y-80378660D01*
X53230740Y-80378660D02*
X53558400Y-80051000D01*
D52*
X52920860Y-80378660D02*
X52798940Y-80378660D01*
D53*
X81713838Y-83717779D02*
X80558579Y-83717779D01*
X80558579Y-83717779D02*
X80535600Y-83694800D01*
X73935593Y-84832593D02*
X74024407Y-84832593D01*
X74894400Y-83962600D02*
X74894400Y-83886400D01*
X74024407Y-84832593D02*
X74894400Y-83962600D01*
X63292512Y-84511699D02*
X65267523Y-86486710D01*
X65267523Y-86486710D02*
X69214310Y-86486710D01*
X69214310Y-86486710D02*
X69590601Y-86863001D01*
X69590601Y-86863001D02*
X69890600Y-87163000D01*
X62602499Y-84511699D02*
X63292512Y-84511699D01*
X61605600Y-83514800D02*
X62602499Y-84511699D01*
X61030600Y-83514800D02*
X61605600Y-83514800D01*
X73700600Y-87594800D02*
X73700600Y-85067586D01*
X73700600Y-85067586D02*
X73935593Y-84832593D01*
X73935593Y-84832593D02*
X73993207Y-84774979D01*
X9435600Y-84019800D02*
X10060600Y-84019800D01*
X10985600Y-89494800D02*
X11435600Y-89944800D01*
X10985600Y-84944800D02*
X10985600Y-89494800D01*
X10060600Y-84019800D02*
X10985600Y-84944800D01*
X79183927Y-86044802D02*
X78883928Y-86344801D01*
X79708600Y-82994800D02*
X79561622Y-83141778D01*
X79561622Y-83141778D02*
X79561622Y-85667107D01*
X80535600Y-82994800D02*
X79708600Y-82994800D01*
X79561622Y-85667107D02*
X79183927Y-86044802D01*
X71104145Y-85862880D02*
X69463520Y-85862880D01*
X67754600Y-86070800D02*
X67782400Y-86098600D01*
X69255600Y-86070800D02*
X67754600Y-86070800D01*
X69463520Y-85862880D02*
X69255600Y-86070800D01*
X67782400Y-86098600D02*
X67782400Y-86121600D01*
X67782400Y-86121600D02*
X67782400Y-86098600D01*
X66809000Y-85125200D02*
X67782400Y-86098600D01*
X66232000Y-85125200D02*
X66809000Y-85125200D01*
X65825600Y-85734800D02*
X66100200Y-85734800D01*
X12245088Y-89504288D02*
X12245088Y-85502288D01*
X10112600Y-83369800D02*
X9435600Y-83369800D01*
X12685600Y-89944800D02*
X12245088Y-89504288D01*
X12245088Y-85502288D02*
X10112600Y-83369800D01*
D51*
X48053100Y-83073600D02*
X48053100Y-84223100D01*
X48053100Y-84223100D02*
X49291200Y-85461200D01*
X53380600Y-86324800D02*
X52440800Y-86324800D01*
X52440800Y-86324800D02*
X51475600Y-87290000D01*
X51475600Y-87290000D02*
X49646800Y-87290000D01*
X49646800Y-87290000D02*
X49291200Y-86934400D01*
X49291200Y-86934400D02*
X49291200Y-85461200D01*
X48053100Y-83073600D02*
X48053100Y-78697300D01*
X52519540Y-83152340D02*
X52519540Y-84193740D01*
X52519540Y-84193740D02*
X53380600Y-85054800D01*
X52519540Y-83152340D02*
X56222860Y-83152340D01*
X48053100Y-78697300D02*
X48293100Y-78697300D01*
D54*
X53380600Y-85054800D02*
X53380600Y-86324800D01*
X53380600Y-86324800D02*
X53380600Y-87554800D01*
D53*
X73700600Y-77434800D02*
X72850601Y-78284799D01*
X72850601Y-78284799D02*
X72850601Y-79305216D01*
X72850601Y-79305216D02*
X72856074Y-79310689D01*
X87535600Y-77244800D02*
X87535600Y-78391893D01*
X87535600Y-78391893D02*
X87494919Y-78432574D01*
X3735600Y-78819800D02*
X2260600Y-78819800D01*
X435600Y-76994800D02*
X-414400Y-76994800D01*
X2260600Y-78819800D02*
X435600Y-76994800D01*
D50*
X88235600Y-78148000D02*
X89337328Y-79249728D01*
X89337328Y-79249728D02*
X89684799Y-79249728D01*
X88235600Y-77244800D02*
X88235600Y-78148000D01*
D53*
X-414400Y-79494800D02*
X735600Y-79494800D01*
X2660600Y-81419800D02*
X3735600Y-81419800D01*
X735600Y-79494800D02*
X2660600Y-81419800D01*
X61877600Y-77434800D02*
X63030818Y-78588018D01*
X67504477Y-83176677D02*
X67985600Y-83657800D01*
X63996569Y-81028982D02*
X66144264Y-83176677D01*
X70093800Y-81956000D02*
X71795600Y-80254200D01*
X66144264Y-83176677D02*
X67504477Y-83176677D01*
X63996569Y-79280477D02*
X63996569Y-81028982D01*
X63304110Y-78588018D02*
X63996569Y-79280477D01*
X63030818Y-78588018D02*
X63304110Y-78588018D01*
X61000600Y-77434800D02*
X61877600Y-77434800D01*
X70093800Y-82997400D02*
X70093800Y-81956000D01*
X69433400Y-83657800D02*
X70093800Y-82997400D01*
X67985600Y-83657800D02*
X69433400Y-83657800D01*
X72008885Y-80010285D02*
X72008885Y-79909981D01*
X72024200Y-80025600D02*
X72008885Y-80010285D01*
X72008885Y-79909981D02*
X72180178Y-79738688D01*
X61000600Y-77434800D02*
X61226002Y-77434800D01*
D50*
X89894319Y-78246401D02*
X90202321Y-78246401D01*
X90202321Y-78246401D02*
X91289378Y-79333458D01*
X91289378Y-79944589D02*
X89985179Y-81248788D01*
X89635600Y-77987682D02*
X89894319Y-78246401D01*
X89985179Y-81248788D02*
X89685180Y-81548787D01*
X89635600Y-77244800D02*
X89635600Y-77987682D01*
X91289378Y-79333458D02*
X91289378Y-79944589D01*
X71795600Y-80254200D02*
X72024200Y-80025600D01*
X71795600Y-81244800D02*
X71795600Y-80254200D01*
D53*
X16535600Y-75144800D02*
X16535600Y-78494800D01*
X16535600Y-78494800D02*
X16585600Y-78544800D01*
X9435600Y-77519800D02*
X12360600Y-77519800D01*
X12360600Y-77519800D02*
X13585600Y-78744800D01*
X81362600Y-84394800D02*
X81476101Y-84281299D01*
X81476101Y-84281299D02*
X82221683Y-84281299D01*
X82221683Y-84281299D02*
X82458185Y-84044797D01*
X80535600Y-84394800D02*
X81362600Y-84394800D01*
X66226081Y-82613157D02*
X66650345Y-82613157D01*
X64323580Y-80869300D02*
X66067437Y-82613157D01*
X63540600Y-77434800D02*
X64323580Y-78217780D01*
X64323580Y-78217780D02*
X64323580Y-80869300D01*
X66067437Y-82613157D02*
X66226081Y-82613157D01*
X63540600Y-77434800D02*
X63794646Y-77434800D01*
D50*
X80535600Y-84394800D02*
X80522890Y-84407510D01*
D53*
X76514317Y-82405404D02*
X76514317Y-81981140D01*
X76514317Y-82471017D02*
X76514317Y-82405404D01*
X77828100Y-83784800D02*
X76514317Y-82471017D01*
X78145600Y-83784800D02*
X77828100Y-83784800D01*
X87227166Y-78962064D02*
X87227166Y-80807965D01*
X86835600Y-78570498D02*
X87227166Y-78962064D01*
X86835600Y-77244800D02*
X86835600Y-78570498D01*
X87227166Y-80807965D02*
X86927167Y-81107964D01*
X84214842Y-82458303D02*
X84214842Y-81174838D01*
X84214842Y-81174838D02*
X84277885Y-81111795D01*
X84277885Y-81111795D02*
X84277885Y-80687531D01*
X83845225Y-84280453D02*
X84176042Y-83949636D01*
X83472947Y-84280453D02*
X83845225Y-84280453D01*
X83335600Y-85244800D02*
X83335600Y-84417800D01*
X83335600Y-84417800D02*
X83472947Y-84280453D01*
X84176042Y-83949636D02*
X84176042Y-83549198D01*
X84176042Y-83549198D02*
X84470077Y-83255163D01*
X84470077Y-83255163D02*
X84470077Y-82713538D01*
X84470077Y-82713538D02*
X84214842Y-82458303D01*
X83705010Y-82783116D02*
X83906576Y-82984682D01*
X83705010Y-80588511D02*
X83705010Y-82783116D01*
X83222099Y-79403545D02*
X83222099Y-80105600D01*
X82488533Y-78669979D02*
X83222099Y-79403545D01*
X81487421Y-78669979D02*
X82488533Y-78669979D01*
X80535600Y-78794800D02*
X81362600Y-78794800D01*
X83222099Y-80105600D02*
X83705010Y-80588511D01*
X81362600Y-78794800D02*
X81487421Y-78669979D01*
X81314309Y-79494800D02*
X81812119Y-78996990D01*
X80535600Y-79494800D02*
X81314309Y-79494800D01*
X83280011Y-83413805D02*
X83282179Y-83415973D01*
X82895088Y-80241053D02*
X83280011Y-80625976D01*
X83280011Y-80625976D02*
X83280011Y-83413805D01*
X81812119Y-78996990D02*
X82349390Y-78996990D01*
X82349390Y-78996990D02*
X82895088Y-79542688D01*
X83282179Y-83415973D02*
X83582178Y-83715972D01*
X82895088Y-79542688D02*
X82895088Y-80241053D01*
X80535600Y-81594800D02*
X81580200Y-81594800D01*
D50*
X80535600Y-81594800D02*
X81908719Y-81594800D01*
X81908719Y-81594800D02*
X81982483Y-81668564D01*
X61000600Y-87554800D02*
X61762599Y-86792801D01*
D53*
X61998718Y-86556682D02*
X62045798Y-86556682D01*
X62045798Y-86556682D02*
X62470062Y-86556682D01*
X61762599Y-86792801D02*
X61998718Y-86556682D01*
D50*
X85384600Y-86388300D02*
X85384600Y-85193800D01*
X85384600Y-85193800D02*
X85435600Y-85244800D01*
D51*
X55920600Y-85689800D02*
X55971400Y-85740600D01*
X55971400Y-85740600D02*
X57740800Y-85740600D01*
X55920600Y-85054800D02*
X55920600Y-85689800D01*
X59298800Y-84340600D02*
X59298800Y-82607673D01*
X59298800Y-82607673D02*
X59614397Y-82292076D01*
X59640800Y-84682600D02*
X59298800Y-84340600D01*
X59640800Y-85740600D02*
X59640800Y-84682600D01*
X59640800Y-84682600D02*
X59400400Y-84442200D01*
D53*
X71260600Y-87594800D02*
X73267422Y-85587978D01*
X73267422Y-85587978D02*
X73267422Y-83438904D01*
X73267422Y-83438904D02*
X75484322Y-81222004D01*
X75484322Y-81222004D02*
X75484322Y-80797740D01*
X82786784Y-81816422D02*
X82786784Y-80595211D01*
X80535600Y-82294800D02*
X81362600Y-82294800D01*
X81362600Y-82294800D02*
X81425334Y-82232066D01*
X81425334Y-82232066D02*
X82371140Y-82232066D01*
X82786784Y-80595211D02*
X82082600Y-79891027D01*
X82371140Y-82232066D02*
X82786784Y-81816422D01*
X82082600Y-79891027D02*
X82082600Y-79643122D01*
D50*
X71160600Y-87594800D02*
X71260600Y-87594800D01*
D53*
X10185600Y-89944800D02*
X10185600Y-86744800D01*
X10110600Y-84669800D02*
X9435600Y-84669800D01*
X10385600Y-84944800D02*
X10110600Y-84669800D01*
X10385600Y-86544800D02*
X10385600Y-84944800D01*
X10185600Y-86744800D02*
X10385600Y-86544800D01*
X78495442Y-85864410D02*
X78469142Y-85890710D01*
X77803600Y-86717800D02*
X78680600Y-87594800D01*
X78469142Y-85890710D02*
X78469142Y-85963347D01*
X78680600Y-87594800D02*
X78780600Y-87594800D01*
X77803600Y-86628889D02*
X77803600Y-86717800D01*
X79708600Y-80894800D02*
X79234611Y-81368789D01*
X79234611Y-81368789D02*
X79234611Y-85215651D01*
X79234611Y-85215651D02*
X78585852Y-85864410D01*
X78585852Y-85864410D02*
X78495442Y-85864410D01*
X78469142Y-85963347D02*
X77803600Y-86628889D01*
X80535600Y-80894800D02*
X79708600Y-80894800D01*
X9435600Y-82069800D02*
X10112600Y-82069800D01*
X10112600Y-82069800D02*
X12572099Y-84529299D01*
X12572099Y-84529299D02*
X12572099Y-88581299D01*
X12572099Y-88581299D02*
X13535601Y-89544801D01*
X13535601Y-89544801D02*
X13935600Y-89944800D01*
X78145600Y-85054800D02*
X78145600Y-85485016D01*
X75950816Y-81710659D02*
X75950816Y-83765952D01*
X78145600Y-85485016D02*
X77907740Y-85722876D01*
X76367600Y-80795821D02*
X76067601Y-81095820D01*
X76067601Y-81095820D02*
X76067601Y-81593874D01*
X76067601Y-81593874D02*
X75950816Y-81710659D01*
X75950816Y-83765952D02*
X77907740Y-85722876D01*
X79136200Y-80254200D02*
X79136200Y-80397654D01*
X79136200Y-80397654D02*
X79212400Y-80473854D01*
X79322600Y-80194800D02*
X79263200Y-80254200D01*
X79263200Y-80254200D02*
X79136200Y-80254200D01*
X80535600Y-80194800D02*
X79322600Y-80194800D01*
X78145600Y-85054800D02*
X78463100Y-85054800D01*
X78463100Y-85054800D02*
X78875852Y-84642049D01*
X78145600Y-85054800D02*
X77828100Y-85054800D01*
D50*
X81320600Y-87594800D02*
X81320600Y-87442400D01*
X78145600Y-85054800D02*
X78336100Y-85054800D01*
X78336100Y-85054800D02*
X78590100Y-84800800D01*
D53*
X10785600Y-81315987D02*
X10785600Y-78842800D01*
X10112600Y-78169800D02*
X9435600Y-78169800D01*
X10785600Y-78842800D02*
X10112600Y-78169800D01*
X15185600Y-89944800D02*
X15185600Y-84973613D01*
X15185600Y-84973613D02*
X13820297Y-83608310D01*
X13820297Y-83608310D02*
X13077923Y-83608310D01*
X13077923Y-83608310D02*
X10785600Y-81315987D01*
X84213010Y-78549210D02*
X84368600Y-78704800D01*
X82830226Y-78549210D02*
X84213010Y-78549210D01*
X81935600Y-77244800D02*
X81935600Y-78071800D01*
X82206768Y-78342968D02*
X82623985Y-78342968D01*
X81935600Y-78071800D02*
X82206768Y-78342968D01*
X82623985Y-78342968D02*
X82830226Y-78549210D01*
D50*
X84870131Y-80307465D02*
X84870131Y-80482400D01*
X84368600Y-79805934D02*
X84870131Y-80307465D01*
X85765600Y-81377869D02*
X85765600Y-82662036D01*
X84870131Y-80482400D02*
X85765600Y-81377869D01*
X85765600Y-82662036D02*
X85765600Y-83086300D01*
X84368600Y-78704800D02*
X84368600Y-79805934D01*
D53*
X84279700Y-78615900D02*
X84368600Y-78704800D01*
D50*
X81935600Y-77244800D02*
X81935600Y-77922800D01*
D53*
X82635600Y-77244800D02*
X82635600Y-77886200D01*
X82635600Y-77886200D02*
X82971600Y-78222200D01*
X85384600Y-78222200D02*
X85702100Y-78539700D01*
X82971600Y-78222200D02*
X85384600Y-78222200D01*
D50*
X85702100Y-80736800D02*
X85702100Y-78539700D01*
X87416600Y-82451300D02*
X87226100Y-82451300D01*
X85702100Y-80736800D02*
X87416600Y-82451300D01*
X82635600Y-77244800D02*
X82635600Y-77924300D01*
X87797600Y-87404300D02*
X87797600Y-86959800D01*
X87353100Y-86515300D02*
X87353100Y-85427300D01*
X87797600Y-86959800D02*
X87353100Y-86515300D01*
X87353100Y-85427300D02*
X87535600Y-85244800D01*
X88940600Y-87594800D02*
X87988100Y-87594800D01*
X87988100Y-87594800D02*
X87797600Y-87404300D01*
X88235600Y-85244800D02*
X88235600Y-86331300D01*
X88235600Y-86331300D02*
X88242100Y-86324800D01*
X84541153Y-84100869D02*
X84541153Y-83844648D01*
X84541153Y-83844648D02*
X85079719Y-83306082D01*
X84035600Y-85244800D02*
X84035600Y-84606422D01*
X85079719Y-81735299D02*
X84779720Y-81435300D01*
X85079719Y-83306082D02*
X85079719Y-81735299D01*
X84035600Y-84606422D02*
X84541153Y-84100869D01*
D53*
X90386526Y-79011474D02*
X90386526Y-79983004D01*
X90386526Y-79983004D02*
X89083578Y-81285952D01*
D50*
X89083578Y-81285952D02*
X89083578Y-82054684D01*
X89083578Y-82054684D02*
X89247065Y-82218171D01*
D53*
X73336404Y-80461278D02*
X73636403Y-80161279D01*
X72646500Y-81151182D02*
X73336404Y-80461278D01*
X72646500Y-81981400D02*
X72646500Y-81151182D01*
X59940829Y-78915029D02*
X59210599Y-78184799D01*
X67858600Y-84064200D02*
X67298088Y-83503688D01*
X63669558Y-81164434D02*
X63669558Y-79415929D01*
X69535000Y-84064200D02*
X67858600Y-84064200D01*
X67298088Y-83503688D02*
X66008812Y-83503688D01*
X63168658Y-78915029D02*
X59940829Y-78915029D01*
X63669558Y-79415929D02*
X63168658Y-78915029D01*
X70436700Y-83162500D02*
X69535000Y-84064200D01*
X66008812Y-83503688D02*
X63669558Y-81164434D01*
X59210599Y-78184799D02*
X58460600Y-77434800D01*
X70436700Y-83162500D02*
X70436700Y-82222700D01*
X70678000Y-81981400D02*
X72646500Y-81981400D01*
X70436700Y-82222700D02*
X70678000Y-81981400D01*
X71795600Y-82514800D02*
X71084400Y-82514800D01*
X71084400Y-82514800D02*
X70436700Y-83162500D01*
X58460600Y-77434800D02*
X58460600Y-77460200D01*
D50*
X89727304Y-78649612D02*
X90024664Y-78649612D01*
X89430328Y-78642728D02*
X89720421Y-78642729D01*
X88935600Y-78148000D02*
X89430328Y-78642728D01*
X88935600Y-77244800D02*
X88935600Y-78148000D01*
X90024664Y-78649612D02*
X90386526Y-79011474D01*
X89720421Y-78642729D02*
X89727304Y-78649612D01*
D53*
X72113100Y-82514800D02*
X72646500Y-81981400D01*
X71795600Y-82514800D02*
X72113100Y-82514800D01*
X71795600Y-82514800D02*
X71478100Y-82514800D01*
X17585600Y-73994800D02*
X16535600Y-72944800D01*
X17585600Y-79344800D02*
X17585600Y-73994800D01*
X16985600Y-79944800D02*
X17585600Y-79344800D01*
X3735600Y-77519800D02*
X3560600Y-77519800D01*
X3560600Y-77519800D02*
X2785600Y-76744800D01*
X4035600Y-88544800D02*
X4035600Y-89394800D01*
X4035600Y-89394800D02*
X5785600Y-91144800D01*
X5785600Y-91144800D02*
X5635600Y-90744800D01*
D49*
X5535600Y-74944800D02*
X5535600Y-74594800D01*
X5535600Y-74594800D02*
X5585600Y-74544800D01*
X7785600Y-73344800D02*
X8385600Y-73944800D01*
X12985600Y-73944800D02*
X8385600Y-73944800D01*
X13985600Y-73944800D02*
X13985600Y-76744800D01*
X15385600Y-80944800D02*
X13585600Y-82744800D01*
X15385600Y-78144800D02*
X15385600Y-80944800D01*
X13985600Y-76744800D02*
X15385600Y-78144800D01*
X12935600Y-73944800D02*
X12985600Y-73944800D01*
X12985600Y-73944800D02*
X13985600Y-73944800D01*
X13985600Y-73944800D02*
X15035600Y-73944800D01*
X15035600Y-72944800D02*
X15035600Y-73944800D01*
X15035600Y-73944800D02*
X15035600Y-75144800D01*
X12935600Y-72944800D02*
X12935600Y-73944800D01*
X12935600Y-73944800D02*
X12935600Y-75144800D01*
X4035600Y-88544800D02*
X4035600Y-87894800D01*
X5385600Y-81194800D02*
X4960600Y-80769800D01*
X5385600Y-86544800D02*
X5385600Y-81194800D01*
X4035600Y-87894800D02*
X5385600Y-86544800D01*
X3735600Y-80769800D02*
X4960600Y-80769800D01*
X5385600Y-80344800D02*
X5385600Y-75094800D01*
X4960600Y-80769800D02*
X5385600Y-80344800D01*
X5385600Y-75094800D02*
X5535600Y-74944800D01*
X10110600Y-81419800D02*
X9435600Y-81419800D01*
X13435600Y-84744800D02*
X10110600Y-81419800D01*
X13585600Y-84744800D02*
X13435600Y-84744800D01*
X9435600Y-81419800D02*
X6385600Y-81419800D01*
X6385600Y-81419800D02*
X6385600Y-81344800D01*
X5535600Y-88544800D02*
X5535600Y-87394800D01*
X4035600Y-74094800D02*
X4035600Y-74944800D01*
X4785600Y-73344800D02*
X4035600Y-74094800D01*
X5985600Y-73344800D02*
X4785600Y-73344800D01*
X7185600Y-74544800D02*
X5985600Y-73344800D01*
X7185600Y-76544800D02*
X7185600Y-74544800D01*
X6385600Y-77344800D02*
X7185600Y-76544800D01*
X6385600Y-86544800D02*
X6385600Y-81344800D01*
X6385600Y-81344800D02*
X6385600Y-77344800D01*
X5535600Y-87394800D02*
X6385600Y-86544800D01*
X4035600Y-74944800D02*
X4035600Y-75994800D01*
X4610600Y-80119800D02*
X3735600Y-80119800D01*
X4785600Y-79944800D02*
X4610600Y-80119800D01*
X4785600Y-76744800D02*
X4785600Y-79944800D01*
X4035600Y-75994800D02*
X4785600Y-76744800D01*
D53*
X-414400Y-75744800D02*
X185600Y-75744800D01*
X2610600Y-78169800D02*
X3735600Y-78169800D01*
X185600Y-75744800D02*
X2610600Y-78169800D01*
X-414400Y-78244800D02*
X685600Y-78244800D01*
X1910600Y-79469800D02*
X3735600Y-79469800D01*
X685600Y-78244800D02*
X1910600Y-79469800D01*
X3735600Y-82069800D02*
X2510600Y-82069800D01*
X1185600Y-80744800D02*
X-414400Y-80744800D01*
X2510600Y-82069800D02*
X1185600Y-80744800D01*
X-414400Y-81994800D02*
X1235600Y-81994800D01*
X1960600Y-82719800D02*
X3735600Y-82719800D01*
X1235600Y-81994800D02*
X1960600Y-82719800D01*
X3735600Y-83369800D02*
X-289400Y-83369800D01*
X-289400Y-83369800D02*
X-414400Y-83244800D01*
X-414400Y-84494800D02*
X1035600Y-84494800D01*
X1510600Y-84019800D02*
X3735600Y-84019800D01*
X1035600Y-84494800D02*
X1510600Y-84019800D01*
X3735600Y-84669800D02*
X1660600Y-84669800D01*
X585600Y-85744800D02*
X-414400Y-85744800D01*
X1660600Y-84669800D02*
X585600Y-85744800D01*
X9435600Y-85319800D02*
X8610600Y-85319800D01*
X8610600Y-85319800D02*
X7185600Y-86744800D01*
X9435600Y-79469800D02*
X8510600Y-79469800D01*
X10385600Y-72944800D02*
X11435600Y-72944800D01*
X10385600Y-75744800D02*
X10385600Y-75344800D01*
X9785600Y-76344800D02*
X10385600Y-75744800D01*
X8585600Y-76344800D02*
X9785600Y-76344800D01*
X7985600Y-76944800D02*
X8585600Y-76344800D01*
X7985600Y-78944800D02*
X7985600Y-76944800D01*
X8510600Y-79469800D02*
X7985600Y-78944800D01*
X9510600Y-79544800D02*
X9435600Y-79469800D01*
X7135600Y-90744800D02*
X7135600Y-88269800D01*
X7135600Y-88269800D02*
X9435600Y-85969800D01*
X8935600Y-86469800D02*
X9435600Y-85969800D01*
X11435600Y-75144800D02*
X11435600Y-75494800D01*
X11435600Y-75494800D02*
X10185600Y-76744800D01*
X10185600Y-76744800D02*
X8785600Y-76744800D01*
X8785600Y-76744800D02*
X8385600Y-77144800D01*
X8385600Y-77144800D02*
X8385600Y-78544800D01*
X8385600Y-78544800D02*
X8660600Y-78819800D01*
X8660600Y-78819800D02*
X9435600Y-78819800D01*
X9560600Y-78944800D02*
X9435600Y-78819800D01*
M02*
