M48
;DRILL file {KiCad 4.0.2+dfsg1-stable} date 2018年05月25日 15時51分25秒
;FORMAT={-:-/ absolute / inch / decimal}
FMAT,2
INCH,TZ
T1C0.016
T2C0.020
T3C0.030
T4C0.033
T5C0.039
T6C0.039
T7C0.040
T8C0.047
%
G90
G05
M72
T1
X0.1097Y-3.0214
X0.2829Y-3.4151
X0.4089Y-2.8718
X0.4089Y-2.9663
X0.653Y-3.0923
X0.6687Y-3.1474
X2.4595Y-3.4077
X2.624Y-3.2525
X2.7516Y-3.4316
X2.7994Y-3.3804
X2.8417Y-3.1393
X2.8683Y-3.1225
X2.8991Y-3.156
X2.9486Y-3.3026
X2.9718Y-3.181
X2.9857Y-3.1098
X3.0066Y-3.1809
X3.0124Y-3.2276
X3.0672Y-3.3749
X3.1057Y-3.3994
X3.1186Y-3.1683
X3.1806Y-3.0406
X3.2171Y-3.296
X3.2277Y-3.2153
X3.2286Y-3.4036
X3.2316Y-3.1323
X3.2464Y-3.3089
X3.2906Y-3.2959
X3.3034Y-3.2671
X3.318Y-3.1767
X3.3378Y-3.2061
X3.3571Y-3.3058
X3.3616Y-3.4011
X3.3766Y-3.2711
X3.4223Y-3.1932
X3.4341Y-3.2461
X3.4447Y-3.0879
X3.4741Y-3.3986
X3.5137Y-3.2369
X3.5309Y-3.1201
X3.5309Y-3.2106
X3.5605Y-3.0411
X3.5606Y-3.3546
T2
X-0.0163Y-2.9821
X-0.0163Y-3.0313
X-0.0163Y-3.0805
X-0.0163Y-3.1297
X-0.0163Y-3.1789
X-0.0163Y-3.2281
X-0.0163Y-3.2774
X-0.0163Y-3.3266
X-0.0163Y-3.3758
X-0.0163Y-3.425
X0.401Y-3.5411
X0.4502Y-3.5411
X0.4994Y-3.5411
X0.5486Y-3.5411
X0.5979Y-3.5411
T3
X0.5349Y-3.1002
X0.5349Y-3.1789
X0.5349Y-3.2577
X0.5349Y-3.3364
X2.1016Y-3.447
X2.2016Y-3.447
X2.3016Y-3.447
X2.4016Y-3.447
X2.5016Y-3.447
X2.6016Y-3.447
X2.7016Y-3.1486
X2.7016Y-3.2486
X2.7016Y-3.3486
X2.7016Y-3.447
T4
X1.4896Y-2.9856
X1.4896Y-3.4856
X1.5896Y-2.9856
X1.5896Y-3.4856
X1.6896Y-2.9856
X1.6896Y-3.4856
X1.7896Y-2.9856
X1.7896Y-3.4856
X1.9896Y-2.9856
X1.9896Y-3.0856
X1.9896Y-3.1856
X1.9896Y-3.2856
X1.9896Y-3.3856
X1.9896Y-3.4856
X2.1016Y-3.0486
X2.2016Y-3.0486
X2.3016Y-3.0486
X2.4016Y-3.0486
X2.5016Y-3.0486
X2.6016Y-3.0486
X2.7016Y-3.0486
X2.8016Y-3.0486
X2.8016Y-3.4486
X2.9016Y-3.0486
X2.9016Y-3.4486
X3.0016Y-3.0486
X3.0016Y-3.4486
X3.1016Y-3.0486
X3.1016Y-3.4486
X3.2016Y-3.4486
X3.3016Y-3.4486
X3.4016Y-3.4486
X3.5016Y-3.4486
T5
X0.9863Y-2.9605
X0.9863Y-3.5117
X1.8919Y-2.9605
X1.8919Y-3.0983
X1.8919Y-3.3936
X1.8919Y-3.5117
T6
X0.2199Y-2.9348
X0.3065Y-2.8876
X2.1406Y-3.2146
X2.347Y-3.2398
X2.4688Y-3.1448
X2.5045Y-3.2492
X2.5268Y-3.3081
X2.6043Y-3.1798
T7
X2.1016Y-3.3486
X2.2016Y-3.3486
T8
X1.0266Y-3.2236
T0
M30
