G04 #@! TF.FileFunction,Soldermask,Bot*
%FSLAX46Y46*%
G04 Gerber Fmt 4.6, Leading zero omitted, Abs format (unit mm)*
G04 Created by KiCad (PCBNEW 4.0.2+dfsg1-stable) date 2018年05月25日 15時51分19秒*
%MOMM*%
G01*
G04 APERTURE LIST*
%ADD10C,0.100000*%
%ADD11C,1.924000*%
%ADD12C,2.400000*%
%ADD13R,2.100000X2.100000*%
%ADD14O,2.100000X2.100000*%
%ADD15O,1.900000X1.800000*%
%ADD16R,2.432000X2.000000*%
%ADD17O,2.432000X2.432000*%
%ADD18O,2.000000X1.800000*%
%ADD19C,1.900000*%
%ADD20O,1.900000X2.400000*%
%ADD21R,2.400000X2.400000*%
%ADD22C,3.900120*%
%ADD23O,2.100000X1.900000*%
%ADD24R,1.900000X1.700000*%
%ADD25C,2.100000*%
%ADD26O,1.900000X1.600000*%
%ADD27R,1.200000X1.200000*%
%ADD28O,1.200000X1.200000*%
G04 APERTURE END LIST*
D10*
D11*
X50535800Y-88534600D03*
X50535800Y-85994600D03*
X50535800Y-83454600D03*
X50535800Y-80914600D03*
X50535800Y-78374600D03*
X50535800Y-75834600D03*
X45455800Y-75834600D03*
X42915800Y-75834600D03*
X40375800Y-75834600D03*
X37835800Y-75834600D03*
X37835800Y-88534600D03*
X40375800Y-88534600D03*
X42915800Y-88534600D03*
X45455800Y-88534600D03*
D12*
X44185800Y-85359600D03*
X44185800Y-79009600D03*
D13*
X71160600Y-77434800D03*
D14*
X73700600Y-77434800D03*
X76240600Y-77434800D03*
X78780600Y-77434800D03*
D11*
X63540600Y-87554800D03*
X66080600Y-87554800D03*
X61000600Y-87554800D03*
X58460600Y-87554800D03*
X55920600Y-87554800D03*
X53380600Y-87554800D03*
D15*
X68620600Y-87554800D03*
D16*
X53380600Y-85054800D03*
D17*
X55920600Y-85054800D03*
D18*
X68620600Y-82514800D03*
X68620600Y-85054800D03*
D19*
X68620600Y-79974800D03*
D20*
X48053100Y-86197300D03*
D21*
X48053100Y-78697300D03*
X48053100Y-75197300D03*
X48053100Y-89197300D03*
X25053100Y-89197300D03*
X25053100Y-75197300D03*
D22*
X26075600Y-81879800D03*
D23*
X88940600Y-87594800D03*
X83860600Y-87594800D03*
X86400600Y-87594800D03*
X81320600Y-87594800D03*
X76240600Y-87594800D03*
X78780600Y-87594800D03*
X73700600Y-87594800D03*
D24*
X71160600Y-87594800D03*
D25*
X66080600Y-77434800D03*
X68620600Y-77434800D03*
D19*
X63540600Y-77434800D03*
X58460600Y-77434800D03*
D15*
X61000600Y-77434800D03*
D25*
X55920600Y-77434800D03*
D13*
X53380600Y-77434800D03*
D26*
X13585600Y-84744800D03*
X13585600Y-82744800D03*
D19*
X13585600Y-80744800D03*
X13585600Y-78744800D03*
D27*
X-414400Y-75744800D03*
D28*
X-414400Y-76994800D03*
X-414400Y-78244800D03*
X-414400Y-79494800D03*
X-414400Y-80744800D03*
X-414400Y-81994800D03*
X-414400Y-83244800D03*
X-414400Y-84494800D03*
X-414400Y-85744800D03*
X-414400Y-86994800D03*
D27*
X10185600Y-89944800D03*
D28*
X11435600Y-89944800D03*
X12685600Y-89944800D03*
X13935600Y-89944800D03*
X15185600Y-89944800D03*
M02*
